<mxfile host="65bd71144e">
    <diagram id="QUZYU_OlkySdI_vLha0s" name="Page-1">
        <mxGraphModel dx="956" dy="796" grid="1" gridSize="10" guides="1" tooltips="1" connect="1" arrows="1" fold="1" page="1" pageScale="1" pageWidth="2339" pageHeight="3300" math="0" shadow="0">
            <root>
                <mxCell id="0"/>
                <mxCell id="1" parent="0"/>
                <mxCell id="49" value="map" style="swimlane;" parent="1" vertex="1">
                    <mxGeometry x="390" y="720" width="150" height="330" as="geometry"/>
                </mxCell>
                <mxCell id="7" value="Map" style="whiteSpace=wrap;html=1;" parent="49" vertex="1">
                    <mxGeometry x="10" y="160" width="120" height="60" as="geometry"/>
                </mxCell>
                <mxCell id="50" value="constuctions" style="swimlane;" parent="49" vertex="1">
                    <mxGeometry x="10" y="30" width="120" height="80" as="geometry"/>
                </mxCell>
                <mxCell id="51" value="has a cost" style="ellipse;shape=cloud;whiteSpace=wrap;html=1;" parent="50" vertex="1">
                    <mxGeometry y="28.5" width="110" height="41.5" as="geometry"/>
                </mxCell>
                <mxCell id="149" value="have sereval &lt;br&gt;(created by Move)" style="endArrow=classic;html=1;exitX=0.5;exitY=0;exitDx=0;exitDy=0;entryX=0.5;entryY=1;entryDx=0;entryDy=0;" parent="49" source="7" target="50" edge="1">
                    <mxGeometry width="50" height="50" relative="1" as="geometry">
                        <mxPoint y="-90" as="sourcePoint"/>
                        <mxPoint x="80" y="-140" as="targetPoint"/>
                    </mxGeometry>
                </mxCell>
                <mxCell id="177" value="have sereval" style="endArrow=classic;html=1;exitX=0.25;exitY=1;exitDx=0;exitDy=0;entryX=0;entryY=0;entryDx=0;entryDy=0;" parent="49" source="7" target="178" edge="1">
                    <mxGeometry width="50" height="50" relative="1" as="geometry">
                        <mxPoint x="60" y="-190" as="sourcePoint"/>
                        <mxPoint x="70" y="260" as="targetPoint"/>
                    </mxGeometry>
                </mxCell>
                <mxCell id="178" value="Land" style="whiteSpace=wrap;html=1;" parent="49" vertex="1">
                    <mxGeometry x="10" y="260" width="120" height="60" as="geometry"/>
                </mxCell>
                <mxCell id="180" value="created by" style="endArrow=classic;html=1;exitX=1;exitY=0;exitDx=0;exitDy=0;entryX=0.75;entryY=1;entryDx=0;entryDy=0;" parent="49" source="178" target="7" edge="1">
                    <mxGeometry width="50" height="50" relative="1" as="geometry">
                        <mxPoint x="220" y="230" as="sourcePoint"/>
                        <mxPoint x="220" y="270" as="targetPoint"/>
                    </mxGeometry>
                </mxCell>
                <mxCell id="9" value="player" style="swimlane;" parent="1" vertex="1">
                    <mxGeometry x="70" y="100" width="1350" height="290" as="geometry"/>
                </mxCell>
                <mxCell id="2" value="Player" style="whiteSpace=wrap;html=1;" parent="9" vertex="1">
                    <mxGeometry x="200" y="220" width="104" height="60" as="geometry"/>
                </mxCell>
                <mxCell id="10" value="Inventaire" style="whiteSpace=wrap;html=1;" parent="9" vertex="1">
                    <mxGeometry x="10" y="220" width="104" height="60" as="geometry"/>
                </mxCell>
                <mxCell id="15" value="have a" style="endArrow=classic;html=1;exitX=0;exitY=0.5;exitDx=0;exitDy=0;entryX=1;entryY=0.5;entryDx=0;entryDy=0;" parent="9" source="2" target="10" edge="1">
                    <mxGeometry width="50" height="50" relative="1" as="geometry">
                        <mxPoint x="290" y="250" as="sourcePoint"/>
                        <mxPoint x="340" y="200" as="targetPoint"/>
                    </mxGeometry>
                </mxCell>
                <mxCell id="42" value="plays" style="swimlane;horizontal=0;" parent="9" vertex="1">
                    <mxGeometry x="20" y="40" width="490" height="170" as="geometry"/>
                </mxCell>
                <mxCell id="43" value="Build" style="rounded=0;whiteSpace=wrap;html=1;" parent="42" vertex="1">
                    <mxGeometry x="184" y="100" width="120" height="60" as="geometry"/>
                </mxCell>
                <mxCell id="44" value="LunchDices" style="rounded=0;whiteSpace=wrap;html=1;" parent="42" vertex="1">
                    <mxGeometry x="230" y="20" width="120" height="60" as="geometry"/>
                </mxCell>
                <mxCell id="45" value="Play" style="rounded=0;whiteSpace=wrap;html=1;" parent="42" vertex="1">
                    <mxGeometry x="40" y="40" width="120" height="60" as="geometry"/>
                </mxCell>
                <mxCell id="46" value="is" style="endArrow=classic;html=1;exitX=0;exitY=0.5;exitDx=0;exitDy=0;entryX=1;entryY=0.25;entryDx=0;entryDy=0;" parent="42" source="44" target="45" edge="1">
                    <mxGeometry width="50" height="50" relative="1" as="geometry">
                        <mxPoint x="52.000000000000114" y="259.9999999999999" as="sourcePoint"/>
                        <mxPoint x="100" y="170" as="targetPoint"/>
                    </mxGeometry>
                </mxCell>
                <mxCell id="47" value="is" style="endArrow=classic;html=1;exitX=0.25;exitY=0;exitDx=0;exitDy=0;entryX=1.007;entryY=0.639;entryDx=0;entryDy=0;entryPerimeter=0;" parent="42" source="43" target="45" edge="1">
                    <mxGeometry width="50" height="50" relative="1" as="geometry">
                        <mxPoint x="110" y="110" as="sourcePoint"/>
                        <mxPoint x="110" y="80" as="targetPoint"/>
                    </mxGeometry>
                </mxCell>
                <mxCell id="17" value="util_my" style="swimlane;" parent="1" vertex="1">
                    <mxGeometry x="60" y="560" width="310" height="330" as="geometry"/>
                </mxCell>
                <mxCell id="16" value="RessourceCount" style="rounded=0;whiteSpace=wrap;html=1;" parent="17" vertex="1">
                    <mxGeometry x="10" y="30" width="120" height="60" as="geometry"/>
                </mxCell>
                <mxCell id="19" value="HexagonalGrids" style="rounded=0;whiteSpace=wrap;html=1;" parent="17" vertex="1">
                    <mxGeometry x="10" y="100" width="120" height="60" as="geometry"/>
                </mxCell>
                <mxCell id="35" value="Box" style="shape=process;whiteSpace=wrap;html=1;backgroundOutline=1;" parent="17" vertex="1">
                    <mxGeometry x="10" y="170" width="120" height="60" as="geometry"/>
                </mxCell>
                <mxCell id="37" value="Coord" style="shape=process;whiteSpace=wrap;html=1;backgroundOutline=1;" parent="17" vertex="1">
                    <mxGeometry x="140" y="170" width="120" height="60" as="geometry"/>
                </mxCell>
                <mxCell id="38" value="directions" style="swimlane;" parent="17" vertex="1">
                    <mxGeometry x="20" y="250" width="100" height="65" as="geometry"/>
                </mxCell>
                <mxCell id="39" value="..." style="ellipse;shape=cloud;whiteSpace=wrap;html=1;" parent="38" vertex="1">
                    <mxGeometry x="30" y="30" width="40" height="27.5" as="geometry"/>
                </mxCell>
                <mxCell id="156" value="" style="endArrow=none;dashed=1;html=1;exitX=0.5;exitY=1;exitDx=0;exitDy=0;entryX=1;entryY=0.5;entryDx=0;entryDy=0;" parent="17" source="37" target="38" edge="1">
                    <mxGeometry width="50" height="50" relative="1" as="geometry">
                        <mxPoint x="200" y="170" as="sourcePoint"/>
                        <mxPoint x="250" y="120" as="targetPoint"/>
                    </mxGeometry>
                </mxCell>
                <mxCell id="18" value="is" style="endArrow=classic;html=1;exitX=0.5;exitY=1;exitDx=0;exitDy=0;entryX=0.5;entryY=0;entryDx=0;entryDy=0;" parent="1" source="10" target="16" edge="1">
                    <mxGeometry width="50" height="50" relative="1" as="geometry">
                        <mxPoint x="380" y="610" as="sourcePoint"/>
                        <mxPoint x="430" y="560" as="targetPoint"/>
                    </mxGeometry>
                </mxCell>
                <mxCell id="20" value="is" style="endArrow=classic;html=1;exitX=0;exitY=0;exitDx=0;exitDy=0;entryX=1;entryY=0.5;entryDx=0;entryDy=0;" parent="1" source="7" target="19" edge="1">
                    <mxGeometry width="50" height="50" relative="1" as="geometry">
                        <mxPoint x="142" y="450" as="sourcePoint"/>
                        <mxPoint x="150" y="600" as="targetPoint"/>
                        <Array as="points">
                            <mxPoint x="350" y="710"/>
                        </Array>
                    </mxGeometry>
                </mxCell>
                <mxCell id="23" value="gameVriable" style="swimlane;" parent="1" vertex="1">
                    <mxGeometry x="450" y="520" width="140" height="120" as="geometry"/>
                </mxCell>
                <mxCell id="27" value="GameVariables" style="rounded=0;whiteSpace=wrap;html=1;" parent="23" vertex="1">
                    <mxGeometry x="10" y="40" width="120" height="60" as="geometry"/>
                </mxCell>
                <mxCell id="32" value="have a" style="endArrow=classic;html=1;exitX=1;exitY=1;exitDx=0;exitDy=0;entryX=1;entryY=0;entryDx=0;entryDy=0;" parent="1" source="27" target="7" edge="1">
                    <mxGeometry x="-0.1092" y="3" width="50" height="50" relative="1" as="geometry">
                        <mxPoint x="680" y="410" as="sourcePoint"/>
                        <mxPoint x="310" y="600" as="targetPoint"/>
                        <Array as="points">
                            <mxPoint x="580" y="750"/>
                        </Array>
                        <mxPoint as="offset"/>
                    </mxGeometry>
                </mxCell>
                <mxCell id="33" value="have sereval" style="endArrow=classic;html=1;exitX=0;exitY=0.5;exitDx=0;exitDy=0;entryX=1;entryY=0.5;entryDx=0;entryDy=0;" parent="1" source="27" target="2" edge="1">
                    <mxGeometry width="50" height="50" relative="1" as="geometry">
                        <mxPoint x="510" y="380" as="sourcePoint"/>
                        <mxPoint x="640" y="520" as="targetPoint"/>
                    </mxGeometry>
                </mxCell>
                <mxCell id="53" value="created by" style="edgeStyle=none;rounded=0;orthogonalLoop=1;jettySize=auto;html=1;exitX=0.25;exitY=0;exitDx=0;exitDy=0;entryX=0.25;entryY=1;entryDx=0;entryDy=0;" parent="1" source="50" target="45" edge="1">
                    <mxGeometry relative="1" as="geometry">
                        <mxPoint x="360" y="490" as="sourcePoint"/>
                        <mxPoint x="290" y="460" as="targetPoint"/>
                        <Array as="points">
                            <mxPoint x="400" y="560"/>
                            <mxPoint x="230" y="420"/>
                        </Array>
                    </mxGeometry>
                </mxCell>
                <mxCell id="152" value="modified by" style="curved=1;endArrow=classic;html=1;exitX=1;exitY=0.5;exitDx=0;exitDy=0;entryX=1;entryY=0;entryDx=0;entryDy=0;" parent="1" source="7" target="45" edge="1">
                    <mxGeometry x="-0.8284" y="4" width="50" height="50" relative="1" as="geometry">
                        <mxPoint x="570" y="440" as="sourcePoint"/>
                        <mxPoint x="260" y="480" as="targetPoint"/>
                        <Array as="points">
                            <mxPoint x="960" y="450"/>
                            <mxPoint x="370" y="20"/>
                            <mxPoint x="270" y="170"/>
                        </Array>
                        <mxPoint as="offset"/>
                    </mxGeometry>
                </mxCell>
                <mxCell id="155" value="" style="endArrow=none;dashed=1;html=1;dashPattern=1 3;strokeWidth=2;" parent="1" edge="1">
                    <mxGeometry width="50" height="50" relative="1" as="geometry">
                        <mxPoint x="500" y="840" as="sourcePoint"/>
                        <mxPoint x="580" y="810" as="targetPoint"/>
                    </mxGeometry>
                </mxCell>
                <mxCell id="159" value="initiated by" style="endArrow=classic;html=1;exitX=1;exitY=0.5;exitDx=0;exitDy=0;entryX=-0.016;entryY=0.153;entryDx=0;entryDy=0;entryPerimeter=0;" parent="1" source="27" target="160" edge="1">
                    <mxGeometry x="-0.7678" y="2" width="50" height="50" relative="1" as="geometry">
                        <mxPoint x="620" y="510" as="sourcePoint"/>
                        <mxPoint x="900" y="470" as="targetPoint"/>
                        <mxPoint as="offset"/>
                    </mxGeometry>
                </mxCell>
                <mxCell id="160" value="Game" style="swimlane;fontStyle=0;childLayout=stackLayout;horizontal=1;startSize=26;horizontalStack=0;resizeParent=1;resizeParentMax=0;resizeLast=0;collapsible=1;marginBottom=0;" parent="1" vertex="1">
                    <mxGeometry x="930" y="508" width="140" height="78" as="geometry"/>
                </mxCell>
                <mxCell id="161" value="Ask move" style="text;strokeColor=none;fillColor=none;align=left;verticalAlign=top;spacingLeft=4;spacingRight=4;overflow=hidden;rotatable=0;points=[[0,0.5],[1,0.5]];portConstraint=eastwest;" parent="160" vertex="1">
                    <mxGeometry y="26" width="140" height="26" as="geometry"/>
                </mxCell>
                <mxCell id="162" value="Make move" style="text;strokeColor=none;fillColor=none;align=left;verticalAlign=top;spacingLeft=4;spacingRight=4;overflow=hidden;rotatable=0;points=[[0,0.5],[1,0.5]];portConstraint=eastwest;" parent="160" vertex="1">
                    <mxGeometry y="52" width="140" height="26" as="geometry"/>
                </mxCell>
                <mxCell id="166" value="" style="shape=curlyBracket;whiteSpace=wrap;html=1;rounded=1;flipH=1;" parent="1" vertex="1">
                    <mxGeometry x="790" y="130" width="40" height="870" as="geometry"/>
                </mxCell>
                <mxCell id="172" value="" style="shape=curlyBracket;whiteSpace=wrap;html=1;rounded=1;rotation=-65;" parent="1" vertex="1">
                    <mxGeometry x="1070" y="270" width="48.94" height="413.75" as="geometry"/>
                </mxCell>
                <mxCell id="181" value="" style="endArrow=none;html=1;entryX=0;entryY=0.5;entryDx=0;entryDy=0;exitX=0.1;exitY=0.5;exitDx=0;exitDy=0;exitPerimeter=0;" parent="1" source="166" target="162" edge="1">
                    <mxGeometry width="50" height="50" relative="1" as="geometry">
                        <mxPoint x="830" y="565" as="sourcePoint"/>
                        <mxPoint x="1010" y="520" as="targetPoint"/>
                    </mxGeometry>
                </mxCell>
                <mxCell id="182" value="" style="endArrow=none;html=1;entryX=0.1;entryY=0.5;entryDx=0;entryDy=0;entryPerimeter=0;exitX=1;exitY=0.5;exitDx=0;exitDy=0;" parent="1" source="161" target="172" edge="1">
                    <mxGeometry width="50" height="50" relative="1" as="geometry">
                        <mxPoint x="960" y="570" as="sourcePoint"/>
                        <mxPoint x="1010" y="520" as="targetPoint"/>
                    </mxGeometry>
                </mxCell>
                <mxCell id="48" value="created by" style="edgeStyle=none;rounded=0;orthogonalLoop=1;jettySize=auto;html=1;exitX=0.5;exitY=1;exitDx=0;exitDy=0;entryX=0;entryY=0;entryDx=0;entryDy=0;" parent="1" source="45" target="160" edge="1">
                    <mxGeometry x="0.2363" y="6" relative="1" as="geometry">
                        <mxPoint x="170" y="270" as="sourcePoint"/>
                        <mxPoint x="690" y="520" as="targetPoint"/>
                        <Array as="points">
                            <mxPoint x="250" y="310"/>
                            <mxPoint x="410" y="310"/>
                        </Array>
                        <mxPoint as="offset"/>
                    </mxGeometry>
                </mxCell>
            </root>
        </mxGraphModel>
    </diagram>
</mxfile>